<mxfile host="app.diagrams.net" modified="2022-08-16T18:09:07.854Z" agent="5.0 (X11; Linux x86_64) AppleWebKit/537.36 (KHTML, like Gecko) Chrome/104.0.0.0 Safari/537.36" etag="yU_jWN2IPhumYbp1Q3rj" version="20.2.4" type="github">
  <diagram id="PRahL9JUjDc2UNYvE_Ky" name="Page-1">
    <mxGraphModel dx="1350" dy="832" grid="1" gridSize="10" guides="1" tooltips="1" connect="1" arrows="1" fold="1" page="1" pageScale="1" pageWidth="850" pageHeight="1100" math="0" shadow="0">
      <root>
        <mxCell id="0" />
        <mxCell id="1" parent="0" />
        <mxCell id="xmCWtUOdZAX90cJY9WNV-1" value="TESTE&lt;br&gt;" style="triangle;whiteSpace=wrap;html=1;" vertex="1" parent="1">
          <mxGeometry x="260" y="200" width="60" height="80" as="geometry" />
        </mxCell>
      </root>
    </mxGraphModel>
  </diagram>
</mxfile>
